{"title":"My.Stepbrother.Is.a.Vampire.2013.DVDRiP.READNFO.XViD-FANTA","uid":9056140,"size":767558402,"categoryP":"video","categoryS":"movies","magnet":"?xt=urn:btih:3ae3ba54f0169f2f3543d2a2ca4d2a9d618c6d80&amp;dn=My.Stepbrother.Is.a.Vampire.2013.DVDRiP.READNFO.XViD-FANTA&amp;tr=udp%3A%2F%2Ftracker.openbittorrent.com%3A80&amp;tr=udp%3A%2F%2Fopen.demonii.com%3A1337&amp;tr=udp%3A%2F%2Ftracker.coppersurfer.tk%3A6969&amp;tr=udp%3A%2F%2Fexodus.desync.com%3A6969","seeders":1,"leechers":2,"uploader":"xxxlavalxxx","files":-1,"time":1381957295,"description":"[IMG]http://i.imgur.com/99O1a0y.png[/IMG]\n\n &lt;a href=&quot;\nhttp://www.imdb.com/title/tt2816800/&quot; rel=&quot;nofollow&quot; target=&quot;_NEW&quot;&gt;\nhttp://www.imdb.com/title/tt2816800/&lt;/a&gt;\n\n\nNANCY MONROE's mother DENISE just got married - and Nancy has a new stepbrother, VICTOR, a Goth guy who dresses in black, wears lots of sunscreen, apparently talks to his cat, and has the ability to cloud women's minds. So Nancy is convinced that he's a vampire - but is she a paranoid wingnut, or is she the only person who sees Victor's true nature?\n\n\nDirector: David DeCoteau\nWriter: Sebastian Dinwiddie\nStars: Seth Austin, Cody Beverstock, Jud Birza\nGenres: Family\nCountry: USA\nLanguage: English\n\n\nFormat                                   : AVI\nFormat/Info                              : Audio Video Interleave\nFile size                                : 716 MiB\nDuration                                 : 1h 32mn\nOverall bit rate                         : 1 084 Kbps\nWriting application                      : MEncoder SVN-r33883(20110719-gcc4.5.2)\nWriting library                          : MPlayer\n\nVideo\nID                                       : 0\nFormat                                   : MPEG-4 Visual\nFormat profile                           : Advanced Simple@L5\nFormat settings, BVOP                    : 2\nFormat settings, QPel                    : No\nFormat settings, GMC                     : No warppoints\nFormat settings, Matrix                  : Default (H.263)\nCodec ID                                 : XVID\nCodec ID/Hint                            : XviD\nDuration                                 : 1h 32mn\nBit rate                                 : 944 Kbps\nWidth                                    : 744 pixels\nHeight                                   : 416 pixels\nDisplay aspect ratio                     : 16:9\nOriginal display aspect ratio            : 16:9\nFrame rate                               : 23.976 fps\nColor space                              : YUV\nChroma subsampling                       : 4:2:0\nBit depth                                : 8 bits\nScan type                                : Progressive\nCompression mode                         : Lossy\nBits/(Pixel*Frame)                       : 0.127\nStream size                              : 624 MiB (87%)\nWriting library                          : XviD 1.2.1 (UTC 2008-12-04)\n\nAudio\nID                                       : 1\nFormat                                   : MPEG Audio\nFormat version                           : Version 1\nFormat profile                           : Layer 3\nMode                                     : Joint stereo\nMode extension                           : MS Stereo\nCodec ID                                 : 55\nCodec ID/Hint                            : MP3\nDuration                                 : 1h 32mn\nBit rate mode                            : Constant\nBit rate                                 : 128 Kbps\nChannel(s)                               : 2 channels\nSampling rate                            : 44.1 KHz\nCompression mode                         : Lossy\nDelay relative to video                  : 42ms\nStream size                              : 84.6 MiB (12%)\nAlignment                                : Aligned on interleaves\nInterleave, duration                     : 26 ms (0.63 video frame)\nInterleave, preload duration             : 522 ms\nWriting library                          : LAME3.98.4\n\n\n\n\n[IMG]http://i.imgur.com/AdNou0i.png[/IMG]\n\n\n\n[IMG]http://i.imgur.com/z5Dguqv.png[/IMG]\n[IMG]http://i.imgur.com/q1K34Yt.png[/IMG]\n[IMG]http://i.imgur.com/JnCDgZy.png[/IMG]\n[IMG]http://i.imgur.com/NYtCSg4.png[/IMG]","torrent":{"xt":"urn:btih:3ae3ba54f0169f2f3543d2a2ca4d2a9d618c6d80","amp;dn":"My.Stepbrother.Is.a.Vampire.2013.DVDRiP.READNFO.XViD-FANTA","amp;tr":["udp%3A%2F%2Ftracker.openbittorrent.com%3A80","udp%3A%2F%2Fopen.demonii.com%3A1337","udp%3A%2F%2Ftracker.coppersurfer.tk%3A6969","udp%3A%2F%2Fexodus.desync.com%3A6969"],"infoHash":"3ae3ba54f0169f2f3543d2a2ca4d2a9d618c6d80","infoHashBuffer":{"type":"Buffer","data":[58,227,186,84,240,22,159,47,53,67,210,162,202,77,42,157,97,140,109,128]},"announce":[],"urlList":[]}}